<svg viewBox="0 0 59 58" fill="none"
    xmlns="http://www.w3.org/2000/svg">
    <path d="M46.8734 1.29498C46.8734 1.29498 57.2774 28.2786 42.9842 47.1068C34.2457 58.6138 20.4436 56.3052 11.3911 53.0636C14.5537 46.0507 18.5769 40.5126 23.4589 36.4494C25.9031 37.7285 30.0837 38.07 36.0006 37.4737C30.7285 37.0281 27.0929 36.1415 25.0937 34.814L25.3529 34.9753C29.775 31.7726 34.8437 29.6764 40.5587 28.6866C33.9877 28.1111 28.0226 29.3645 22.6643 32.4524C21.4673 30.9218 20.2662 28.8461 19.061 26.2252C19.1975 29.3933 19.7523 31.8724 20.726 33.6587C15.2269 37.3832 10.4027 43.1445 6.25339 50.9426C6.11954 50.8835 5.98854 50.8219 5.86053 50.7612C4.19497 50.0252 3.10303 48.6249 2.21889 46.5625C-3.91374 27.6607 9.72496 17.1102 23.2023 16.4932C48.006 15.3553 46.8734 1.29498 46.8734 1.29498Z" fill="#0ED3CF"/>
</svg>
